<?xml version="1.0" standalone="no"?>
<!DOCTYPE svg PUBLIC "-//W3C//DTD SVG 20010904//EN"
 "http://www.w3.org/TR/2001/REC-SVG-20010904/DTD/svg10.dtd">
<svg version="1.0" xmlns="http://www.w3.org/2000/svg"
 width="800.000000pt" height="800.000000pt" viewBox="0 0 800.000000 800.000000"
 preserveAspectRatio="xMidYMid meet">

<g transform="translate(0.000000,800.000000) scale(0.100000,-0.100000)"
fill="#000000" stroke="none">
<path d="M3845 7004 c-525 -34 -1003 -193 -1445 -480 -249 -161 -536 -416
-712 -633 -34 -42 -38 -44 -96 -47 -108 -6 -203 -68 -252 -163 l-20 -40 -117
-3 -118 -3 -9 -28 c-18 -51 1 -58 187 -64 92 -3 167 -8 167 -10 0 -2 -20 -40
-45 -84 -25 -44 -62 -114 -81 -157 -19 -42 -36 -78 -38 -80 -2 -2 -21 4 -42
13 -85 37 -141 53 -155 44 -22 -13 -19 -388 4 -493 9 -44 16 -80 15 -81 -2 -2
-34 5 -73 15 -39 11 -106 19 -150 19 -79 1 -211 -21 -227 -37 -12 -12 28 -218
61 -317 52 -150 154 -311 248 -390 l45 -37 -190 -93 c-124 -61 -199 -103 -218
-124 -15 -17 -33 -31 -40 -31 -31 0 -46 -32 -40 -86 6 -51 6 -52 -33 -77 -47
-31 -98 -95 -85 -106 103 -87 174 -129 251 -150 l42 -12 -63 -78 c-78 -97
-129 -181 -172 -286 -21 -54 -29 -85 -23 -96 14 -26 122 -44 269 -44 l135 1
-28 -60 c-44 -92 -68 -198 -70 -311 l-2 -100 35 3 c47 4 194 44 309 83 76 25
95 29 102 18 5 -8 9 -288 9 -623 0 -450 3 -619 12 -650 18 -60 88 -125 168
-156 l65 -25 730 -5 730 -5 110 -38 c398 -136 908 -190 1345 -142 245 27 539
92 687 152 l68 28 730 5 c636 5 736 8 776 22 111 39 168 83 207 162 67 133 50
388 -42 641 l-23 64 38 50 c62 84 87 189 69 292 -17 92 -51 157 -126 237 -66
72 -71 97 -12 63 106 -63 503 -190 543 -175 38 15 4 271 -54 398 -17 38 -31
70 -31 73 0 2 42 1 93 -3 90 -6 207 5 275 27 39 13 41 34 10 110 -52 126 -159
290 -225 345 -7 6 -13 14 -13 17 0 3 29 15 65 27 61 20 142 68 209 124 l29 24
-22 31 c-12 17 -42 45 -67 63 -42 30 -45 36 -44 73 3 74 1 83 -22 91 -13 4
-41 23 -62 42 -35 31 -349 192 -375 192 -27 0 -13 24 62 101 48 50 99 115 124
159 57 101 117 273 138 395 16 93 16 100 -1 112 -26 19 -98 28 -219 28 -88 -1
-122 -5 -169 -22 l-58 -22 6 22 c28 105 37 198 34 372 -2 148 -6 188 -17 195
-15 8 -102 -19 -169 -54 l-30 -15 -15 38 c-28 68 -80 174 -115 234 -19 32 -32
61 -28 65 4 3 60 5 124 4 128 -3 165 7 170 46 7 47 -9 52 -168 52 l-147 0 -6
76 c-7 95 -41 168 -104 223 -44 39 -134 81 -173 81 -12 0 -32 19 -54 53 -63
96 -138 157 -223 183 -24 7 -73 37 -110 66 -567 447 -1148 666 -1813 682 -85
2 -182 2 -215 0z m356 -214 c187 -15 360 -49 564 -113 202 -64 442 -171 437
-196 -2 -8 3 -11 11 -8 19 7 153 -67 149 -82 -1 -7 2 -10 8 -6 11 7 180 -94
180 -107 0 -5 -6 -8 -12 -8 -9 0 -8 -3 2 -10 9 -6 17 -5 22 3 5 9 10 9 19 0
10 -10 8 -14 -7 -19 -10 -4 -22 -12 -25 -17 -4 -6 -15 -7 -25 -3 -16 6 -16 8
-4 17 13 8 13 10 0 19 -20 13 -25 12 -39 -4 -8 -10 -9 -16 -1 -21 15 -9 12
-28 -4 -22 -8 3 -17 1 -19 -6 -5 -15 -57 30 -57 50 0 19 -13 16 -30 -7 -8 -11
-21 -20 -30 -21 -9 0 -6 -4 8 -9 34 -14 26 -19 -15 -9 -21 5 -47 8 -58 8 -11
-1 14 -9 55 -19 l75 -18 -62 -1 c-34 -1 -84 -8 -110 -17 -60 -20 -161 -92
-188 -133 -19 -30 -23 -31 -87 -31 -39 0 -86 -7 -110 -16 -47 -18 -104 -67
-114 -96 -4 -13 -15 -18 -44 -18 -77 0 -144 -44 -177 -117 l-24 -53 -73 0
c-41 0 -88 -3 -105 -6 l-31 -7 -91 189 c-51 104 -113 238 -140 299 -26 60 -51
111 -56 112 -4 2 -16 -18 -27 -45 -34 -85 -197 -435 -243 -522 -26 -47 -93
-170 -151 -275 -57 -104 -132 -239 -165 -300 -33 -60 -75 -134 -93 -162 -31
-49 -35 -52 -59 -43 -15 6 -37 10 -51 10 -13 0 -24 1 -24 3 0 1 9 30 21 62 24
68 21 152 -7 172 -17 12 -90 -4 -146 -33 l-27 -14 6 118 c5 107 4 121 -16 159
-24 48 -78 96 -117 103 -21 4 -29 14 -39 45 -6 22 -17 50 -24 63 -16 31 -69
62 -104 62 -23 0 -31 7 -43 36 -8 19 -33 55 -56 80 l-41 44 96 0 c53 0 108 -5
124 -11 60 -23 122 -109 123 -171 0 -15 4 -38 10 -52 8 -23 12 -25 37 -15 36
13 43 25 43 74 0 40 -38 136 -59 149 -24 15 -9 26 37 26 26 0 64 5 85 11 43
12 49 37 17 69 -17 17 -33 20 -118 20 l-99 0 -18 41 c-40 87 -141 162 -244
180 -62 11 -83 29 -33 29 21 0 24 2 12 10 -8 5 -33 7 -55 4 -26 -4 -35 -2 -27
4 8 5 13 12 13 16 -3 21 1 26 21 23 18 -1 23 3 25 23 1 14 0 18 -3 8 -6 -20
-24 -25 -24 -6 0 6 -8 3 -20 -7 -11 -10 -17 -21 -15 -25 3 -4 -2 -11 -11 -14
-13 -5 -13 0 4 28 17 29 18 36 6 48 -13 13 -7 20 48 55 63 41 282 163 292 163
3 0 34 14 68 31 35 17 97 42 138 56 41 14 80 29 85 33 13 9 190 64 270 84 237
56 515 76 786 56z m-1701 -505 c0 -5 -5 -3 -10 5 -7 12 -12 12 -22 2 -9 -9 -9
-12 1 -12 7 0 9 -4 6 -10 -3 -5 -1 -10 5 -10 6 0 8 -5 4 -11 -5 -8 -9 -8 -14
1 -5 9 -9 9 -14 1 -4 -6 -15 -11 -24 -11 -13 0 -12 5 8 20 14 11 20 20 15 20
-6 0 -16 -5 -23 -12 -6 -6 -14 -9 -17 -6 -3 3 12 16 32 30 36 24 53 22 53 -7z
m-100 -45 c0 -5 -4 -10 -10 -10 -5 0 -10 5 -10 10 0 6 5 10 10 10 6 0 10 -4
10 -10z m3231 -28 c-6 -2 -9 -8 -5 -13 3 -5 0 -9 -6 -9 -7 0 -10 7 -7 15 4 8
2 17 -3 20 -6 4 -10 11 -10 17 0 6 9 3 21 -8 11 -10 16 -20 10 -22z m-3201 -7
c0 -8 -4 -15 -9 -15 -13 0 -22 16 -14 24 11 11 23 6 23 -9z m63 8 c-7 -2 -13
-12 -13 -20 0 -11 4 -13 13 -6 16 13 57 14 57 2 0 -5 -12 -10 -27 -11 -42 -2
-47 -3 -61 -12 -21 -13 -27 2 -12 29 8 15 22 25 34 24 12 0 15 -3 9 -6z m-98
-43 c-3 -6 -14 -9 -23 -9 -15 1 -15 2 1 6 18 5 24 23 6 23 -5 0 -7 5 -3 11 5
8 10 6 16 -5 5 -9 6 -21 3 -26z m3061 15 c12 -9 14 -14 6 -15 -7 0 -20 7 -28
15 -20 19 -4 20 22 0z m244 -14 c0 -4 -6 -8 -13 -8 -8 0 -14 6 -14 13 0 7 6
10 14 7 7 -3 13 -8 13 -12z m295 -21 c51 -24 99 -74 119 -120 l14 -35 -39 -19
c-21 -11 -39 -23 -39 -28 0 -5 -4 -6 -10 -3 -5 3 -10 0 -10 -8 0 -8 -8 -21
-17 -28 -11 -9 -14 -10 -9 -2 5 9 2 11 -9 7 -14 -6 -12 -11 11 -35 l27 -28 31
26 c17 14 45 32 63 40 46 19 140 16 189 -6 57 -26 110 -92 124 -153 13 -62 4
-117 -19 -120 -9 -1 -233 -2 -499 -3 -519 0 -506 1 -500 -50 6 -42 31 -45 475
-45 l421 0 34 -47 c19 -27 46 -68 60 -93 36 -63 128 -274 128 -292 0 -14 -59
-68 -74 -68 -3 0 -6 22 -6 49 0 71 -17 149 -44 201 -13 25 -31 70 -41 100 -27
84 -53 130 -73 130 -30 0 -110 -57 -139 -99 -16 -22 -41 -45 -56 -52 -15 -6
-46 -25 -67 -40 -22 -16 -42 -29 -44 -29 -2 0 -16 28 -31 63 -15 34 -38 81
-52 105 l-24 43 -27 -20 c-15 -11 -44 -36 -65 -55 -20 -20 -41 -36 -46 -36 -5
0 -12 -6 -14 -12 -4 -10 -8 -10 -15 1 -7 10 -11 10 -17 1 -4 -6 -13 -9 -21 -6
-7 3 -16 1 -19 -4 -4 -6 1 -10 9 -10 23 0 28 -16 9 -31 -12 -10 -14 -10 -9 -1
5 8 0 12 -15 12 -18 0 -20 -3 -11 -12 18 -18 14 -32 -5 -17 -15 12 -16 12 -10
-3 4 -11 2 -17 -5 -15 -7 1 -12 -3 -13 -10 0 -7 -6 -18 -14 -25 -11 -11 -13
-11 -6 1 5 9 3 12 -6 9 -8 -3 -13 -11 -11 -18 4 -19 -18 -39 -35 -33 -12 5
-15 2 -11 -9 4 -8 1 -15 -7 -15 -11 0 -11 5 -4 19 6 12 7 24 1 31 -11 15 -33
100 -27 106 3 2 8 -10 11 -27 4 -18 10 -29 15 -26 5 3 9 -6 9 -20 0 -14 5 -26
10 -26 6 0 10 -8 10 -17 0 -13 3 -14 12 -5 9 9 9 15 0 24 -17 17 -15 23 12 53
16 17 30 24 38 19 10 -5 11 -4 1 7 -7 7 -13 18 -13 24 0 5 4 4 9 -4 7 -10 13
-11 27 -2 11 6 14 11 7 11 -7 0 -10 6 -8 13 4 9 -17 12 -82 13 -116 1 -133 4
-151 32 -21 33 -100 85 -118 78 -19 -7 -42 -62 -54 -128 -6 -28 -12 -53 -13
-55 -2 -1 -54 13 -115 33 -62 20 -119 33 -128 30 -15 -6 -16 -19 -11 -104 3
-53 9 -108 13 -121 6 -21 5 -23 -12 -16 -10 4 -48 19 -84 32 -65 24 -65 24
-81 4 -32 -40 -30 -130 5 -212 6 -13 -2 -17 -44 -23 -28 -4 -55 -4 -60 -1 -4
3 -25 36 -46 73 -20 37 -67 119 -104 182 -68 116 -210 388 -210 402 0 5 126 8
279 8 l279 0 7 33 c10 44 29 80 68 124 30 35 19 32 -28 -8 -11 -10 -27 -19
-35 -21 -8 -2 -22 -12 -31 -23 -16 -18 -30 -20 -160 -20 -163 0 -173 5 -113
62 37 34 40 35 96 30 l57 -5 30 48 c20 33 43 54 73 69 52 25 69 26 133 6 l49
-14 36 41 c83 98 119 127 177 144 148 43 293 -35 336 -181 12 -42 18 -50 37
-50 22 0 25 7 35 65 32 197 187 309 330 240z m-3597 -10 c-20 -11 -40 -24 -43
-30 -3 -5 -11 -10 -16 -10 -12 0 39 44 61 53 34 13 33 5 -2 -13z m3127 10 c3
-6 -1 -7 -9 -4 -18 7 -21 14 -7 14 6 0 13 -4 16 -10z m-3170 -10 c-3 -5 -12
-10 -18 -10 -7 0 -6 4 3 10 19 12 23 12 15 0z m3305 -5 c-7 -9 -15 -13 -17
-11 -7 7 7 26 19 26 6 0 6 -6 -2 -15z m-32 -44 c-7 -11 -16 -18 -20 -15 -4 3
-2 11 5 19 18 21 29 18 15 -4z m-2950 -35 c36 -18 102 -85 102 -103 0 -10 -52
-13 -225 -13 -212 0 -225 1 -216 18 31 52 98 102 158 117 52 13 135 5 181 -19z
m-410 10 c-7 -8 -15 -12 -17 -11 -5 6 10 25 20 25 5 0 4 -6 -3 -14z m42 10 c0
-2 -8 -10 -17 -17 -16 -13 -17 -12 -4 4 13 16 21 21 21 13z m1698 -73 c7 -27
45 -133 83 -238 39 -104 91 -246 116 -315 245 -673 459 -1050 804 -1415 117
-123 148 -160 138 -163 -11 -5 -84 39 -121 72 -14 13 -36 42 -47 64 -27 53
-63 86 -112 102 -21 7 -36 17 -33 21 3 5 -3 9 -13 9 -10 0 -23 8 -30 19 -12
19 -182 152 -231 182 -92 55 -176 99 -188 99 -9 0 -10 -7 -4 -27 21 -70 149
-394 163 -411 9 -11 3 -94 -9 -127 -4 -10 -20 0 -56 38 l-50 52 46 -87 c25
-48 46 -97 46 -108 0 -15 -13 -26 -45 -40 -44 -19 -50 -28 -57 -90 -3 -22 -11
-16 -74 60 -88 106 -137 182 -229 363 -39 77 -77 143 -83 145 -6 2 -18 -8 -28
-23 -13 -19 -17 -51 -19 -132 l-2 -106 -49 -60 c-68 -82 -213 -217 -235 -217
-39 0 -49 11 -49 56 0 43 52 321 110 589 16 77 30 141 30 143 0 3 -28 -38 -61
-89 -34 -52 -82 -118 -106 -149 -58 -70 -164 -182 -169 -177 -3 2 11 37 30 78
61 131 157 386 138 364 -5 -6 -47 -53 -92 -105 -46 -52 -126 -137 -177 -187
-82 -82 -97 -93 -128 -93 -19 0 -35 5 -35 10 0 6 5 10 12 10 6 0 9 3 5 6 -3 4
4 15 16 25 12 10 16 18 10 19 -7 0 -13 -4 -13 -10 0 -5 -7 -10 -17 -10 -14 0
-14 2 3 21 14 16 16 23 6 26 -6 3 -10 9 -6 14 9 15 -1 10 -27 -12 -18 -16 -20
-22 -10 -28 20 -13 2 -34 -25 -28 -13 2 -21 0 -17 -5 3 -6 19 -7 35 -4 16 3
27 2 24 -3 -3 -4 -24 -11 -46 -14 -56 -7 -103 -42 -131 -96 -13 -25 -25 -48
-27 -50 -1 -2 -11 -5 -22 -6 -11 -1 -35 -15 -53 -32 -19 -17 -44 -36 -57 -43
-18 -10 -20 -14 -9 -21 11 -7 10 -9 -5 -9 -11 0 -34 -11 -52 -25 -18 -14 -35
-25 -39 -25 -13 0 24 41 167 189 215 222 399 473 547 747 160 298 229 460 422
992 62 171 115 312 119 312 3 0 11 -21 18 -47z m-1970 -135 c31 -15 54 -36 75
-70 l30 -49 36 35 c44 43 106 66 176 66 125 0 224 -73 258 -191 12 -42 13 -43
59 -44 31 0 54 -7 69 -20 26 -24 49 -75 49 -109 0 -21 6 -25 40 -31 46 -8 100
-48 100 -75 0 -20 -26 -32 -116 -55 -83 -20 -84 -20 -84 18 -1 17 -11 61 -23
97 -28 83 -45 87 -117 28 -82 -67 -86 -69 -183 -66 -64 1 -91 -2 -96 -11 -6
-9 -11 -10 -15 -2 -4 6 -2 11 5 11 23 0 -6 21 -32 24 -14 1 -31 6 -39 11 -8 5
-35 20 -60 33 -25 13 -48 29 -52 35 -10 16 -10 15 -66 -100 l-50 -102 -33 26
c-19 14 -51 33 -71 42 -21 10 -48 33 -61 51 -28 42 -92 88 -134 96 -29 6 -33
3 -51 -32 -11 -22 -27 -64 -37 -94 -10 -30 -29 -76 -42 -102 -16 -31 -28 -78
-36 -147 l-12 -100 -39 33 -40 33 18 49 c46 122 170 357 200 376 6 4 71 8 144
8 120 0 134 2 153 21 11 11 19 28 17 37 -7 37 -42 41 -305 35 -188 -5 -253 -3
-253 5 0 26 72 91 117 106 57 20 96 20 148 0 73 -28 71 -28 83 13 15 46 37 73
87 107 49 33 120 35 183 4z m-294 -447 c16 -11 35 -30 42 -43 16 -28 18 -84 4
-93 -12 -7 -90 112 -90 138 0 22 8 21 44 -2z m490 -7 c7 -19 2 -18 -19 6 -16
17 -16 20 -3 15 9 -4 19 -13 22 -21z m4052 -5 c-8 -43 -59 -123 -79 -127 -13
-3 -17 4 -17 33 0 43 21 88 52 109 37 26 51 21 44 -15z m-941 -13 c14 -19 30
-48 35 -65 l9 -31 -27 15 c-49 27 -62 42 -62 72 0 26 6 43 16 43 2 0 15 -15
29 -34z m-2701 2 c10 -39 7 -58 -8 -52 -8 3 -28 -9 -45 -28 -29 -31 -31 -32
-31 -10 0 36 48 112 71 112 3 0 9 -10 13 -22z m2904 -25 c-10 -2 -26 -2 -35 0
-10 3 -2 5 17 5 19 0 27 -2 18 -5z m-3187 -212 c46 -52 79 -148 78 -225 l0
-51 -26 57 c-23 51 -27 56 -45 47 -14 -7 -23 -7 -34 2 -17 14 -17 10 1 -76 8
-39 15 -79 14 -90 0 -18 -1 -17 -14 5 -8 14 -14 30 -15 36 0 18 -114 218 -117
208 -2 -6 14 -72 35 -147 22 -75 36 -137 33 -137 -12 1 -58 76 -94 151 -19 42
-43 79 -52 83 -16 6 -17 0 -11 -49 3 -30 2 -55 -2 -55 -4 0 -17 15 -29 33 -32
47 -30 125 7 262 16 61 30 120 30 133 0 20 13 12 101 -60 56 -46 119 -103 140
-127z m3551 51 c26 -103 30 -136 25 -197 -8 -113 -45 -159 -45 -56 0 27 -4 57
-10 67 -10 18 -11 18 -18 -1 -30 -85 -58 -142 -85 -176 -17 -22 -33 -38 -35
-36 -2 2 10 61 26 132 17 70 29 132 28 137 -3 9 -124 -232 -139 -277 -14 -41
-9 39 6 100 19 81 19 82 -16 94 -18 6 -33 11 -34 11 -2 0 -13 -34 -40 -125 -1
-5 -6 -1 -11 9 -11 28 10 157 35 208 27 57 66 98 181 193 77 63 96 74 98 59 2
-11 17 -74 34 -142z m-3995 64 c32 -36 50 -106 34 -134 -8 -14 -11 -12 -22 13
-8 17 -22 37 -31 46 -20 18 -37 109 -20 109 5 0 23 -15 39 -34z m4213 -3 c-1
-30 -61 -145 -79 -151 -7 -2 -11 18 -11 56 0 50 4 66 26 91 33 40 64 42 64 4z
m-3677 -8 c-3 -9 -8 -14 -10 -11 -3 3 -2 9 2 15 9 16 15 13 8 -4z m471 -82
c-3 -49 -10 -113 -16 -143 -13 -68 -48 -142 -64 -136 -7 3 -15 0 -18 -7 -3 -7
-4 -3 -1 8 14 67 17 115 5 115 -7 0 -9 -8 -5 -20 4 -11 2 -20 -4 -20 -6 0 -11
5 -11 12 0 9 -3 9 -12 0 -10 -10 -10 -15 2 -23 12 -9 11 -10 -4 -5 -14 5 -32
-8 -73 -54 -65 -71 -113 -108 -113 -87 0 8 24 50 53 93 29 44 56 88 60 99 8
21 -144 -130 -201 -200 -31 -39 -31 -37 13 53 62 126 68 142 51 142 -17 0 -38
-24 -71 -80 l-26 -45 6 50 c9 68 35 124 81 175 58 65 108 91 234 126 63 17
116 32 118 33 1 0 0 -38 -4 -86z m2407 0 c93 -50 165 -149 174 -240 l6 -48
-18 33 c-9 18 -23 30 -29 28 -9 -3 -11 1 -7 11 4 10 2 14 -4 10 -5 -4 -21 5
-33 18 -35 37 -43 30 -14 -12 14 -21 39 -64 55 -95 23 -47 26 -56 12 -51 -10
4 -29 21 -42 37 -39 48 -162 169 -166 164 -3 -2 26 -49 64 -103 42 -59 67
-104 63 -113 -4 -11 -2 -13 8 -7 9 5 11 4 6 -4 -9 -13 -48 19 -139 113 -32 34
-54 51 -48 39 16 -32 13 -38 -7 -20 -10 10 -22 14 -26 10 -4 -5 -6 -2 -4 6 2
7 -3 16 -9 18 -9 3 -9 -6 2 -38 28 -79 -14 -63 -58 22 -20 39 -30 79 -37 144
-6 50 -12 106 -16 126 l-5 36 111 -28 c61 -16 134 -41 161 -56z m-3637 -1 c21
-41 28 -85 18 -112 l-9 -24 -18 27 c-23 36 -64 138 -65 160 0 17 2 17 30 -3
17 -12 36 -34 44 -48z m4686 24 c0 -38 -40 -123 -67 -143 -14 -10 -18 -10 -25
0 -22 34 5 128 45 159 34 27 47 22 47 -16z m-5150 -92 c104 -42 175 -95 220
-162 28 -42 32 -70 8 -56 -7 5 -9 -2 -4 -20 6 -25 5 -26 -21 -20 -16 4 -44 19
-63 34 -54 43 -132 90 -148 90 -7 0 11 -28 40 -62 129 -150 178 -233 178 -301
0 -26 -4 -47 -8 -47 -11 0 -93 87 -128 135 -15 22 -39 53 -52 69 l-23 29 7
-28 c5 -19 3 -26 -4 -21 -21 13 -43 105 -53 221 -5 66 -14 130 -19 143 -12 28
-7 28 70 -4z m5590 -96 c-10 -142 -28 -232 -45 -218 -7 6 -18 0 -32 -18 -95
-118 -117 -143 -152 -171 l-40 -32 -6 24 c-10 39 45 137 150 267 86 107 88
110 83 116 -6 6 -110 -57 -143 -86 -19 -18 -91 -60 -100 -60 -3 0 -5 7 -5 16
0 9 5 12 13 8 6 -4 9 -4 5 1 -4 4 -2 15 5 24 10 13 7 12 -15 -2 -39 -24 -36
-4 7 60 35 52 109 115 174 148 32 16 104 44 107 41 1 0 -2 -53 -6 -118z
m-3672 66 c3 -33 -18 -97 -25 -76 -3 6 -8 10 -12 7 -5 -2 -14 7 -21 21 -8 13
-20 22 -27 20 -20 -8 -15 8 10 31 44 41 71 40 75 -3z m1752 14 c18 -13 39 -33
47 -45 14 -21 14 -22 -18 -18 -37 5 -60 -9 -53 -33 2 -9 -5 1 -16 23 -20 41
-25 76 -13 88 10 11 18 9 53 -15z m-3124 -178 c127 0 193 -12 269 -50 53 -25
165 -122 165 -141 0 -4 -25 6 -55 23 -38 20 -60 27 -68 20 -7 -5 -25 -8 -41
-6 -24 2 -13 -8 55 -52 73 -48 130 -92 92 -70 -7 4 -21 9 -30 11 -86 20 -113
29 -170 55 -109 50 -111 37 -3 -34 38 -26 94 -57 122 -70 l53 -24 -40 5 c-105
13 -200 47 -269 96 -28 20 -28 20 -18 0 13 -23 102 -93 152 -118 19 -10 62
-26 95 -36 l60 -19 -65 6 c-36 3 -111 21 -168 41 -90 31 -108 41 -140 79 -45
55 -84 124 -106 191 -9 29 -26 63 -37 77 -26 33 -24 36 13 25 18 -5 78 -9 134
-9z m4604 14 c0 -4 -8 -21 -19 -38 -10 -17 -27 -56 -36 -86 -22 -68 -54 -119
-112 -181 -51 -55 -134 -92 -240 -109 -37 -6 -79 -13 -93 -16 -14 -3 9 8 50
24 101 39 173 87 219 145 18 23 11 21 -29 -8 -33 -24 -124 -58 -188 -69 -42
-7 -32 3 59 62 59 38 122 92 107 92 -4 0 -28 -11 -55 -24 -26 -14 -85 -36
-131 -50 -96 -28 -95 -20 4 46 l64 43 -35 3 c-23 2 -33 7 -29 14 4 6 -19 -3
-51 -20 -32 -18 -61 -30 -64 -27 -10 10 95 107 141 131 70 35 160 54 273 55
55 0 111 5 125 9 33 11 40 11 40 4z m-3186 -54 c62 -23 -1 -39 -79 -20 -32 7
-23 15 25 23 14 2 26 5 27 6 1 0 13 -3 27 -9z m1696 -10 c11 -7 5 -10 -25 -11
-22 -1 -55 -3 -72 -5 -33 -2 -45 10 -20 19 22 9 102 7 117 -3z m-1879 -86 c58
-17 249 -114 249 -126 0 -5 -6 -8 -13 -8 -7 0 -36 -16 -64 -35 -29 -19 -56
-35 -61 -35 -5 0 -15 -6 -21 -14 -12 -14 -113 -48 -176 -60 -16 -3 -66 -8
-110 -10 l-80 -5 67 22 c44 14 74 31 88 50 18 22 19 27 6 27 -9 0 -16 -4 -16
-10 0 -5 -7 -7 -16 -3 -9 3 -47 0 -85 -7 -57 -11 -72 -11 -82 0 -10 10 -8 12
11 7 12 -3 20 -1 17 3 -3 5 14 14 37 21 62 16 122 49 111 60 -5 5 -51 3 -118
-6 -59 -9 -110 -14 -112 -11 -2 2 44 23 103 47 92 36 104 44 86 52 -21 10
-128 -2 -166 -18 -36 -15 -7 14 35 35 80 42 215 52 310 24z m2220 0 c62 -18
133 -53 126 -61 -3 -2 -15 1 -27 7 -29 15 -136 18 -150 4 -9 -9 5 -17 57 -34
73 -24 143 -57 143 -66 0 -3 -8 -3 -17 1 -38 15 -175 31 -215 26 l-43 -6 105
-38 c58 -21 111 -40 119 -43 29 -10 4 -12 -49 -4 -93 14 -190 18 -190 9 0 -5
8 -9 18 -10 15 0 15 -1 -2 -8 -14 -6 0 -14 60 -34 l79 -26 -66 -1 c-94 0 -242
40 -318 87 -34 21 -75 45 -91 53 -16 8 -30 17 -30 20 0 15 184 106 251 124 73
20 174 20 240 0z m-2743 -110 c35 -40 27 -91 -17 -121 -48 -32 -103 -31 -130
3 -40 51 -23 104 44 143 29 16 77 5 103 -25z m3156 5 c32 -25 49 -64 41 -90
-8 -25 -66 -59 -100 -59 -16 0 -43 11 -62 26 -26 20 -33 32 -33 60 0 75 92
112 154 63z m-4694 -60 c91 -14 188 -68 255 -141 48 -51 95 -123 95 -143 0 -4
-24 14 -52 39 -90 79 -149 51 -62 -28 38 -34 46 -47 37 -56 -9 -10 -45 10
-163 89 -84 57 -153 101 -155 99 -3 -2 56 -67 130 -143 74 -77 137 -148 141
-157 3 -10 10 -18 15 -18 6 0 7 -9 4 -22 -6 -18 -4 -20 11 -14 14 5 16 4 8 -4
-8 -8 -24 -6 -60 11 -47 22 -153 85 -164 98 -17 20 -122 113 -111 99 7 -9 9
-23 5 -29 -4 -8 -3 -9 4 -5 7 4 12 3 12 -3 0 -5 -4 -12 -8 -15 -12 -7 -65 93
-58 110 3 9 1 12 -4 9 -6 -3 -10 5 -10 19 0 14 -4 26 -9 26 -5 0 -12 16 -15
35 -4 20 -11 33 -16 30 -6 -3 -7 1 -4 9 3 9 2 16 -4 16 -5 0 -12 12 -15 28 -3
15 -9 35 -12 44 -5 13 0 17 27 21 64 8 114 7 178 -4z m6282 -4 c15 -6 15 -11
3 -43 -19 -53 -82 -183 -102 -211 -33 -46 -108 -113 -179 -160 -90 -60 -131
-78 -146 -63 -14 14 24 62 175 218 60 63 108 116 106 119 -2 2 -42 -22 -89
-53 -112 -74 -211 -125 -222 -114 -6 6 11 25 41 48 50 39 73 68 45 57 -8 -3
-14 1 -14 8 0 11 -3 11 -11 -1 -8 -12 -12 -12 -16 -2 -3 9 -16 3 -41 -18 -21
-17 -48 -40 -61 -51 -34 -28 -35 -19 -5 35 65 116 179 203 307 231 59 14 173
14 209 0z m-5534 -145 c114 -59 173 -115 218 -205 40 -81 53 -171 39 -262 l-8
-48 -17 95 c-17 94 -53 183 -91 229 -27 33 -32 22 -14 -29 25 -70 18 -90 -11
-32 -16 32 -30 50 -37 45 -7 -3 -9 -2 -4 2 10 12 -22 45 -39 38 -8 -3 -14 0
-14 6 0 7 -14 26 -31 44 l-31 32 31 -48 c70 -105 132 -282 147 -421 9 -87 -7
-65 -56 79 -39 113 -134 320 -152 331 -4 3 -6 -1 -3 -8 9 -28 45 -150 45 -154
0 -14 -30 1 -52 26 -26 29 -26 29 -33 7 -6 -20 -7 -19 -20 13 -7 19 -14 53
-15 75 l-2 40 -10 -34 c-13 -46 6 -183 37 -269 13 -36 21 -70 18 -75 -4 -6 -1
-7 7 -2 8 5 11 3 8 -6 -3 -8 -1 -23 4 -34 18 -39 -62 61 -83 103 -50 101 -62
238 -35 402 8 47 17 106 21 133 l6 47 47 -39 c26 -21 84 -58 130 -81z m4783
57 c3 -29 14 -108 25 -175 15 -106 16 -134 6 -195 -13 -72 -74 -217 -93 -217
-6 0 -6 7 1 20 9 16 8 19 -7 13 -13 -5 -15 -3 -9 13 35 84 49 140 52 209 4 76
3 78 -11 50 -11 -24 -14 -26 -15 -10 -1 16 -3 17 -8 5 -13 -29 -37 -56 -55
-63 -9 -4 -22 -19 -28 -34 -23 -58 -19 0 5 81 30 97 32 120 9 91 -25 -32 -82
-160 -130 -290 -25 -66 -51 -136 -59 -155 l-15 -35 5 60 c6 61 52 248 79 320
18 47 12 79 -10 49 -7 -10 -13 -14 -13 -9 0 4 -11 -5 -25 -21 -31 -36 -33 -15
-5 41 27 52 25 54 -11 19 -59 -56 -99 -160 -115 -299 -9 -81 -22 -47 -23 60
-1 138 44 251 130 329 26 24 92 66 147 95 55 29 112 65 127 82 16 16 31 26 34
24 3 -3 8 -29 12 -58z m-4307 -144 c-61 -58 -150 -123 -158 -115 -18 18 0 45
55 82 51 35 133 79 148 80 3 0 -18 -21 -45 -47z m3665 20 c56 -32 151 -103
151 -112 0 -3 -4 -12 -9 -19 -6 -10 -26 1 -82 46 -77 62 -128 112 -114 112 4
0 29 -12 54 -27z m-3110 -3 c22 -11 53 -36 69 -56 33 -40 66 -142 60 -188 l-3
-28 -39 31 c-21 17 -41 31 -43 31 -2 0 10 -20 27 -46 33 -48 35 -83 3 -65 -20
11 -48 37 -80 74 -44 52 -141 217 -128 217 3 0 26 -20 50 -44 25 -24 45 -38
45 -30 0 8 6 11 15 8 20 -8 19 -7 -10 54 -14 29 -25 54 -25 57 0 10 21 5 59
-15z m2589 3 c-12 -13 -31 -123 -22 -123 1 0 19 16 40 35 22 19 43 35 47 35
11 0 -64 -138 -105 -194 -38 -53 -84 -90 -104 -82 -14 5 -14 9 -2 29 7 12 19
36 27 52 l12 30 -29 -32 c-41 -44 -57 -31 -48 38 13 101 72 188 148 219 40 15
54 13 36 -7z m655 2 c20 -8 39 -20 43 -27 6 -10 4 -11 -7 0 -7 6 -20 12 -28
12 -9 0 -25 7 -35 15 -25 19 -18 19 27 0z m-2981 -17 c-18 -19 -32 -23 -73
-21 -27 1 -55 5 -61 9 -21 13 37 33 97 34 l59 0 -22 -22z m2123 12 c35 -13 22
-34 -17 -26 -18 3 -27 2 -23 -4 4 -6 -6 -10 -21 -10 -27 0 -64 24 -64 42 0 11
93 10 125 -2z m716 -200 c82 -81 124 -153 135 -230 l6 -45 -17 30 c-28 50 -92
129 -153 188 -61 57 -205 157 -228 157 -14 0 -15 -62 -1 -76 4 -4 7 -19 7 -33
0 -21 -2 -23 -10 -11 -10 16 -11 8 -14 -117 -1 -69 -8 -69 -36 3 -23 60 -25
50 -5 -35 18 -76 14 -92 -6 -24 -14 48 -16 94 -10 294 l3 105 126 -65 c105
-54 140 -79 203 -141z m-3831 181 c-13 -11 -29 -17 -34 -14 -11 8 22 33 43 33
11 0 9 -6 -9 -19z m489 -71 c0 -50 3 -115 7 -146 3 -31 3 -59 -2 -63 -5 -3
-14 -15 -20 -26 -6 -11 -17 -20 -25 -20 -11 0 -15 28 -19 128 l-5 128 -50 -33
c-27 -17 -54 -31 -59 -30 -5 2 -6 -5 -2 -14 4 -12 2 -15 -9 -10 -9 3 -15 0
-15 -9 0 -8 -5 -15 -11 -15 -5 0 -7 5 -4 10 13 21 -11 9 -29 -15 -10 -14 -23
-25 -29 -25 -21 0 -123 -124 -167 -202 -17 -32 -33 -58 -35 -58 -1 0 2 24 7
52 16 88 56 157 138 238 61 61 97 86 195 137 66 34 123 63 127 63 4 0 7 -41 7
-90z m-1539 -78 c0 -1 -10 2 -22 9 -21 11 -21 11 2 -22 l23 -34 -28 27 c-17
16 -26 32 -22 42 6 15 8 15 27 -1 11 -10 20 -19 20 -21z m1760 -96 c23 -36 47
-67 53 -70 8 -3 8 -8 -3 -15 -17 -11 -50 12 -50 36 0 8 -4 11 -10 8 -5 -3 -10
-2 -10 3 0 5 -11 21 -25 36 -13 14 -20 26 -15 26 6 0 10 9 10 20 0 11 2 20 4
20 2 0 23 -29 46 -64z m-1743 22 c-3 -7 -5 -2 -5 12 0 14 2 19 5 13 2 -7 2
-19 0 -25z m2223 22 c0 -5 -4 -10 -10 -10 -5 0 -10 5 -10 10 0 6 5 10 10 10 6
0 10 -4 10 -10z m-1580 -14 c0 -3 -4 -8 -10 -11 -5 -3 -10 -1 -10 4 0 6 5 11
10 11 6 0 10 -2 10 -4z m648 -31 c-3 -3 -9 2 -12 12 -6 14 -5 15 5 6 7 -7 10
-15 7 -18z m30 0 c-3 -3 -9 2 -12 12 -6 14 -5 15 5 6 7 -7 10 -15 7 -18z
m4512 -4 c0 -5 -7 -11 -14 -14 -10 -4 -13 -1 -9 9 6 15 23 19 23 5z m-4140
-39 c0 -21 -2 -24 -10 -12 -13 20 -13 53 0 45 6 -3 10 -18 10 -33z m490 -144
c0 -42 -14 -78 -31 -78 -28 0 -44 114 -20 142 16 18 16 18 34 -3 10 -12 17
-38 17 -61z m1741 42 c13 -46 10 -101 -7 -117 -14 -14 -17 -14 -31 0 -21 21
-30 112 -13 132 18 22 43 15 51 -15z m-1941 -49 c0 -5 -7 -12 -16 -15 -24 -9
-28 -7 -14 9 14 17 30 20 30 6z m-1468 -39 c61 -27 100 -56 138 -103 l31 -39
-91 44 c-101 50 -168 63 -257 50 l-58 -8 75 -8 c79 -10 161 -40 182 -67 11
-14 11 -14 -3 -4 -15 12 -235 33 -299 28 -50 -4 -119 -15 -160 -25 -31 -9 -29
-9 18 -5 97 8 267 -13 363 -45 92 -30 186 -73 204 -92 7 -8 6 -9 -3 -4 -21 12
-142 43 -232 61 -113 21 -350 30 -350 12 0 -8 -3 -8 -9 2 -7 10 -21 12 -57 7
-44 -6 -120 12 -146 33 -12 10 291 159 357 176 85 21 235 14 297 -13z m5313
13 c59 -14 365 -161 365 -174 0 -4 -15 -12 -34 -19 -18 -7 -53 -26 -77 -42
-27 -18 -51 -27 -63 -24 -13 4 -16 3 -11 -6 5 -9 4 -11 -4 -6 -6 4 -9 12 -6
17 4 5 -2 9 -11 9 -15 0 -15 2 3 18 20 16 15 17 -116 14 -156 -3 -289 -22
-398 -57 -42 -14 -78 -24 -80 -22 -6 6 92 56 160 82 113 42 194 57 327 57 87
1 116 4 95 10 -16 4 -38 6 -47 4 -10 -2 -18 -1 -18 4 0 21 -227 17 -345 -6
l-30 -5 30 20 c17 11 55 26 85 32 114 22 109 20 70 31 -82 23 -224 -13 -321
-83 -50 -35 -44 -14 13 43 52 53 120 94 182 109 53 12 169 10 231 -6z m-3493
-81 c26 -24 23 -68 -8 -101 -14 -15 -22 -22 -18 -14 6 11 3 12 -12 6 -20 -10
-92 -10 -101 -1 -3 3 2 23 10 44 9 22 13 43 9 47 -12 12 23 30 63 33 25 1 45
-4 57 -14z m1459 1 c16 -9 34 -27 39 -41 12 -31 13 -47 1 -40 -4 3 -6 -6 -3
-19 6 -31 -10 -32 -74 -4 l-48 20 19 -20 c10 -12 15 -21 10 -21 -19 0 -55 57
-55 87 0 51 51 68 111 38z m-2212 -95 c103 -13 181 -47 307 -135 52 -36 108
-71 124 -77 17 -5 27 -14 24 -19 -8 -14 -74 -11 -134 6 -48 14 -66 18 -103 24
-5 0 -6 5 -2 11 7 11 -80 62 -155 91 -30 11 -88 24 -130 29 -91 10 -263 -3
-317 -25 l-38 -15 25 20 c39 31 173 79 247 89 37 5 68 9 68 10 0 0 38 -4 84
-9z m3116 -17 c67 -17 195 -75 177 -81 -6 -2 -20 1 -30 7 -32 17 -201 33 -277
26 -95 -9 -203 -46 -305 -105 -47 -26 -103 -53 -125 -59 -44 -12 -128 -15
-138 -5 -4 4 15 17 41 29 26 13 91 53 146 89 54 36 124 75 155 87 104 39 230
43 356 12z m-3716 -22 c14 -9 33 -28 43 -42 19 -25 19 -26 -9 -79 -48 -91
-131 -114 -195 -54 -21 21 -28 37 -28 66 0 68 31 108 99 128 31 10 58 4 90
-19z m4238 -8 c37 -27 57 -83 45 -128 -12 -45 -67 -78 -115 -71 -54 9 -80 29
-111 85 -30 57 -26 86 20 116 59 38 108 38 161 -2z m-5473 -24 c15 -11 44 -46
65 -77 74 -110 75 -128 4 -67 -22 19 -43 31 -47 28 -3 -3 -6 2 -6 11 0 10 -6
16 -12 13 -18 -6 -48 22 -41 39 3 8 1 20 -4 27 -6 6 -13 20 -16 30 -9 24 23
22 57 -4z m291 -16 l30 -25 -40 22 c-50 29 -63 40 -39 34 10 -3 33 -17 49 -31z
m6325 32 c0 -2 -9 -19 -20 -37 -22 -36 -26 -53 -10 -43 6 3 10 2 10 -4 0 -10
-41 -37 -48 -32 -2 1 -26 -18 -55 -43 -28 -25 -53 -43 -55 -41 -2 2 7 25 19
52 28 56 118 153 142 153 9 0 17 -2 17 -5z m-2724 -26 c62 -38 33 -60 -49 -38
-59 16 -70 40 -22 50 17 4 32 7 34 8 2 0 19 -8 37 -20z m-1152 -2 c16 -12 16
-14 2 -26 -17 -15 -136 -28 -136 -16 0 5 10 19 22 32 24 26 83 31 112 10z
m3876 -72 c0 -8 -4 -15 -10 -15 -5 0 -7 7 -4 15 4 8 8 15 10 15 2 0 4 -7 4
-15z m-3646 -108 c33 -18 132 -75 219 -126 184 -108 233 -130 393 -170 126
-32 264 -75 290 -89 12 -7 -4 -22 -73 -69 -48 -34 -140 -102 -203 -152 -84
-67 -121 -90 -135 -87 -47 12 -366 172 -358 180 4 5 3 6 -4 2 -7 -4 -20 -2
-30 3 -10 5 -27 12 -38 16 -15 5 -16 8 -6 14 10 6 5 11 -18 16 -17 3 -31 11
-31 17 0 6 -10 8 -23 5 -12 -4 -28 -2 -36 2 -9 6 -5 9 14 9 38 0 50 17 13 18
-17 1 -36 8 -42 16 -6 8 -21 18 -34 22 -12 4 -22 12 -22 17 0 5 -7 9 -15 9 -8
0 -15 5 -15 10 0 6 7 10 15 10 8 0 12 6 9 14 -5 13 -14 14 -53 4 -7 -1 -16 3
-18 10 -3 6 2 12 11 12 9 0 16 4 16 9 0 4 -18 7 -39 5 -41 -3 -41 -4 -29 46 2
12 -6 15 -42 13 l-45 -3 38 19 c44 21 40 32 -9 21 -53 -12 -53 18 1 34 26 7
-82 -1 -115 -9 -24 -6 -24 -6 5 19 17 14 36 26 43 26 6 0 12 4 12 9 0 11 -55
5 -124 -15 -67 -19 -68 -18 -13 17 51 34 56 46 13 29 -15 -5 -39 -10 -54 -10
-15 0 -40 -7 -56 -15 -47 -25 -41 -9 11 29 66 49 134 73 241 85 85 9 143 28
157 51 6 10 79 -19 179 -73z m2171 43 c7 -12 -2 -12 -30 0 -19 8 -19 9 2 9 12
1 25 -3 28 -9z m-4394 -155 c-76 -72 -125 -146 -156 -231 -30 -86 -46 -156
-34 -148 6 3 7 -6 3 -23 l-7 -28 27 24 c14 14 23 27 20 30 -3 3 -9 -1 -14 -9
-5 -8 -7 3 -4 31 2 29 11 50 25 62 26 21 35 16 19 -12 -16 -31 1 -25 30 11 83
103 148 174 200 216 87 70 103 82 115 82 6 0 6 -3 -1 -8 -6 -4 -75 -81 -152
-172 -179 -208 -244 -280 -255 -280 -5 0 -11 9 -14 20 -5 20 -6 20 -25 -2 -11
-13 -18 -32 -15 -45 2 -12 0 -20 -4 -17 -13 7 -11 163 2 226 16 76 71 186 117
234 40 42 131 94 163 94 12 0 -2 -18 -40 -55z m5115 20 c129 -75 205 -237 203
-436 -1 -62 -4 -84 -8 -64 -4 17 -15 44 -24 62 -9 18 -17 46 -17 63 0 17 -4
29 -9 26 -5 -3 -11 12 -14 34 -13 99 -112 254 -207 326 l-35 26 35 -7 c19 -4
53 -17 76 -30z m-240 -30 c4 -8 12 -15 19 -15 13 0 127 -101 182 -162 19 -20
56 -66 83 -103 52 -70 69 -82 25 -17 -26 38 -34 65 -13 44 19 -19 38 -14 38 9
0 11 -4 18 -9 15 -5 -4 -6 4 -3 16 5 20 8 16 19 -21 10 -36 10 -47 1 -53 -9
-5 -7 -13 10 -28 12 -11 22 -26 22 -33 0 -9 -3 -8 -9 1 -6 10 -11 9 -22 -4 -8
-10 -9 -15 -2 -11 7 5 14 -2 19 -15 4 -13 12 -26 18 -30 7 -4 4 -9 -7 -14 -19
-7 -42 16 -155 153 -32 40 -100 116 -151 170 -50 53 -91 101 -91 105 0 14 20
8 26 -7z m-4163 -82 c10 -12 15 -28 11 -34 -4 -8 -3 -9 4 -5 26 16 82 -121
102 -249 10 -63 3 -259 -8 -212 -7 34 -32 19 -33 -20 -1 -33 -2 -35 -8 -13 -5
14 -3 34 2 45 19 36 11 213 -10 249 -4 6 2 4 12 -4 17 -14 18 -13 11 30 -4 25
-8 50 -8 57 -1 6 -8 9 -15 6 -11 -4 -12 1 -7 22 5 20 4 26 -5 21 -7 -5 -11 0
-11 13 0 12 -5 21 -11 21 -5 0 -17 16 -25 35 -9 22 -19 33 -26 29 -7 -5 -9 -2
-5 8 4 11 -1 18 -16 22 -12 3 -18 8 -14 12 4 4 -3 19 -15 33 -15 16 -8 13 17
-9 22 -18 48 -44 58 -57z m3716 56 c-12 -17 -28 -33 -35 -36 -8 -3 -11 -10 -7
-17 3 -6 3 -8 -2 -4 -4 4 -14 0 -21 -10 -16 -20 -18 -36 -4 -27 12 7 13 -7 2
-20 -5 -6 -14 -29 -22 -52 -7 -23 -17 -40 -23 -36 -6 3 -7 2 -4 -4 3 -5 -1
-36 -9 -68 -22 -84 -22 -411 1 -433 4 -4 5 -1 3 7 -1 7 3 16 10 18 7 3 11 -1
10 -7 -2 -7 3 -15 10 -17 6 -3 12 2 12 11 0 9 5 16 11 16 5 0 7 -4 4 -10 -3
-5 -1 -10 6 -10 7 0 9 8 6 21 -5 17 -3 18 9 8 21 -17 -1 -38 -44 -43 -17 -3
-36 -7 -42 -11 -5 -3 -10 -5 -10 -3 0 2 -9 29 -20 61 -29 82 -44 243 -30 331
13 88 29 138 41 131 5 -4 6 1 3 9 -8 22 49 114 108 173 28 29 53 53 55 53 3 0
-6 -14 -18 -31z m-4673 -4 c-11 -8 -24 -15 -30 -15 -15 0 -210 -92 -221 -105
-5 -6 -44 -32 -85 -58 -41 -25 -119 -87 -174 -137 -54 -50 -107 -95 -118 -101
-18 -10 -19 -8 -13 13 38 123 175 276 312 350 91 49 160 67 263 67 77 0 83 -1
66 -14z m5801 -13 c89 -34 219 -128 280 -201 50 -61 130 -198 120 -207 -2 -2
-46 33 -98 78 -138 121 -179 153 -227 177 -24 12 -62 36 -85 54 -24 18 -79 45
-124 61 -44 16 -91 38 -104 48 -24 19 -23 19 81 15 73 -3 121 -10 157 -25z
m-5139 -205 c6 -20 8 -46 5 -58 -4 -14 -2 -20 4 -16 6 4 8 -4 6 -21 -3 -19 -2
-23 5 -14 7 11 11 8 15 -10 4 -12 5 -23 4 -24 -1 0 4 -8 11 -16 10 -13 10 -17
0 -21 -10 -3 -10 -7 -1 -17 6 -7 9 -18 6 -25 -2 -8 4 -26 14 -42 15 -25 16
-26 1 -15 -23 19 -95 166 -107 222 -14 61 -14 176 1 225 l12 40 7 -86 c4 -47
12 -102 17 -122z m4276 38 c0 -89 -4 -108 -31 -172 -37 -86 -103 -181 -169
-243 -27 -25 -38 -32 -24 -17 21 24 22 30 10 38 -11 8 -10 9 7 4 17 -5 22 -3
18 7 -3 7 0 20 5 28 8 12 12 13 19 2 7 -11 9 -10 14 3 4 9 3 13 -3 10 -6 -3
-10 -4 -10 -1 0 2 -3 12 -7 21 -5 15 -3 16 14 6 16 -8 24 -7 33 4 8 9 8 15 2
15 -6 0 -12 -6 -15 -12 -2 -7 -4 -1 -3 14 1 31 6 34 26 16 8 -7 6 -2 -5 11
-11 14 -14 21 -7 17 8 -5 12 -1 12 11 0 10 9 26 20 36 12 10 17 23 13 33 -3 9
-1 19 5 23 6 4 14 25 18 46 3 22 10 47 14 55 4 8 8 17 8 20 -1 3 3 41 7 84 10
115 30 75 29 -59z m-3199 57 c50 -19 133 -55 185 -80 52 -24 196 -90 320 -147
466 -213 940 -444 940 -457 0 -12 -141 -9 -270 6 -99 12 -131 21 -235 66 -178
76 -425 214 -486 272 -13 13 -50 41 -81 62 -61 40 -70 49 -40 40 13 -5 14 -4
3 4 -7 5 -21 7 -31 5 -10 -3 -21 0 -24 6 -5 7 -1 8 11 4 10 -3 15 -2 10 2 -6
7 -18 10 -62 14 -5 1 -5 5 2 9 8 5 -5 16 -35 32 -26 14 -78 44 -117 67 -38 24
-73 43 -77 43 -14 0 -148 84 -148 93 0 11 25 3 135 -41z m2199 40 c3 -5 -29
-28 -72 -52 -115 -65 -189 -108 -272 -160 -41 -26 -118 -73 -170 -106 -52 -32
-136 -86 -186 -120 -130 -88 -148 -95 -94 -39 107 112 379 297 603 410 141 72
180 85 191 67z m-2380 -132 c147 -61 325 -175 571 -364 72 -55 166 -127 210
-161 76 -57 79 -60 51 -63 -18 -2 -40 4 -56 16 -15 11 -74 53 -131 93 -57 40
-144 103 -194 139 -226 168 -371 258 -567 353 -43 21 -78 39 -78 41 0 9 128
-27 194 -54z m2626 55 c0 -3 -55 -31 -123 -63 -167 -79 -309 -170 -592 -377
-88 -64 -158 -105 -181 -105 -30 0 38 62 213 193 185 140 337 234 466 289 97
42 217 77 217 63z m1221 -12 c13 -16 12 -17 -3 -4 -10 7 -18 15 -18 17 0 8 8
3 21 -13z m-4033 -79 c64 -31 164 -79 222 -106 147 -70 214 -121 340 -261 60
-67 108 -123 106 -125 -2 -1 -25 9 -51 23 -56 29 -62 31 -44 9 55 -66 -374
157 -478 249 -12 11 -27 16 -34 12 -8 -5 -10 -4 -5 3 4 7 -8 28 -27 49 -19 21
-50 58 -68 83 -19 25 -47 62 -62 83 -15 20 -25 37 -22 37 3 0 58 -25 123 -56z
m4467 30 c38 -14 89 -37 114 -51 45 -26 191 -132 191 -139 0 -2 -15 -4 -32 -4
-25 0 -29 3 -18 10 9 6 10 10 3 10 -6 0 -14 -4 -17 -9 -4 -6 -21 -5 -44 1 -51
14 -59 20 -36 29 18 7 18 8 -3 8 -29 1 -131 55 -170 90 -31 29 -70 81 -60 81
2 0 35 -11 72 -26z m-1559 -18 c-33 -50 -114 -145 -162 -192 -68 -67 -332
-235 -374 -239 -3 0 -14 -6 -26 -12 -11 -7 -39 -18 -62 -26 -39 -14 -41 -14
-31 4 5 11 15 19 21 19 6 0 8 3 5 7 -4 3 -15 -1 -24 -9 -20 -18 -105 -60 -110
-55 -5 5 187 218 232 258 22 19 54 45 70 56 50 35 446 219 477 222 4 1 -3 -14
-16 -33z m-4506 16 c0 -32 -172 -142 -223 -142 -9 0 -25 -4 -35 -10 -14 -8
-71 -33 -107 -47 -41 -17 161 134 220 165 75 38 145 54 145 34z m340 4 c0 -3
-4 -8 -10 -11 -5 -3 -10 -1 -10 4 0 6 5 11 10 11 6 0 10 -2 10 -4z m913 -36
c3 -11 1 -20 -4 -20 -5 0 -9 9 -9 20 0 11 2 20 4 20 2 0 6 -9 9 -20z m3664
-72 c-3 -7 -5 -2 -5 12 0 14 2 19 5 13 2 -7 2 -19 0 -25z m553 10 c0 -6 -6 -5
-15 2 -8 7 -15 14 -15 16 0 2 7 1 15 -2 8 -4 15 -11 15 -16z m-4910 -2 c0 -2
-7 -7 -16 -10 -8 -3 -12 -2 -9 4 6 10 25 14 25 6z m126 -101 c16 -39 -57 -131
-89 -113 -25 13 -22 79 3 106 24 26 78 30 86 7z m4744 -14 c10 -21 14 -84 5
-93 -8 -8 -74 24 -79 39 -3 7 -3 27 1 43 4 25 10 30 34 30 18 0 32 -7 39 -19z
m-4432 -32 c3 -11 1 -11 -7 1 -9 13 -11 12 -11 -4 0 -15 -3 -16 -15 -6 -8 7
-15 16 -15 21 0 14 44 3 48 -12z m4297 -1 c30 -24 61 -86 48 -98 -11 -10 -102
-17 -96 -7 2 4 0 7 -5 7 -6 0 -17 19 -27 42 -16 42 -16 43 5 60 29 23 41 23
75 -4z m804 -173 c38 -67 77 -183 69 -207 -2 -6 -18 11 -35 38 -16 27 -51 74
-77 104 -26 30 -50 66 -53 80 -3 14 -9 30 -13 35 -4 6 -6 22 -4 38 1 15 0 25
-4 23 -4 -2 -8 10 -9 27 l-2 32 44 -50 c24 -27 62 -81 84 -120z m-6053 143 c4
-6 3 -8 -3 -5 -6 4 -10 -8 -11 -28 -2 -38 -51 -149 -83 -187 -11 -13 -29 -33
-40 -46 -10 -12 -19 -25 -19 -30 0 -4 -11 -20 -25 -37 -32 -40 -32 -19 0 82
25 79 93 193 142 239 30 28 30 28 39 12z m983 -12 c-3 -28 2 -37 19 -32 14 5
21 -2 31 -29 6 -19 15 -34 19 -34 19 3 23 -2 13 -15 -10 -12 -8 -13 8 -9 23 6
29 -12 9 -21 -7 -3 -3 -3 10 0 22 5 32 -11 10 -18 -7 -3 -5 -7 6 -11 10 -4 15
-3 11 3 -9 15 2 12 30 -6 14 -9 25 -21 25 -26 0 -5 -7 -2 -16 7 -9 9 -19 13
-22 10 -4 -3 0 -10 8 -15 8 -5 12 -11 9 -14 -6 -7 -50 24 -108 77 -24 21 -40
41 -37 45 4 3 13 -3 22 -14 15 -19 15 -19 5 1 -5 11 -20 29 -32 40 -18 16 -21
16 -10 2 18 -23 7 -34 -13 -14 -9 9 -13 23 -10 31 3 9 1 16 -5 16 -6 0 -11 8
-11 18 0 10 7 19 15 19 8 0 15 -5 14 -11z m-477 -28 c16 -17 16 -22 3 -35 -19
-18 -74 -35 -96 -28 -37 12 -27 68 14 85 29 11 58 3 79 -22z m246 16 c25 -18
28 -30 8 -49 -19 -19 -96 -26 -123 -12 -22 12 -22 14 -7 36 29 40 84 52 122
25z m200 -14 c7 -11 9 -20 4 -20 -4 0 -13 9 -20 20 -7 11 -9 20 -4 20 4 0 13
-9 20 -20z m4564 3 c37 -33 10 -76 -43 -68 -70 10 -86 30 -52 67 20 22 70 23
95 1z m-4282 -99 c-8 -29 -18 -44 -29 -44 -14 0 -14 -2 -1 -10 13 -8 13 -10
-1 -10 -9 0 -22 7 -29 15 -14 17 -6 47 12 44 32 -4 38 2 38 44 1 35 2 39 11
24 8 -14 8 -31 -1 -63z m-651 42 c9 -10 9 -16 1 -21 -16 -10 -40 2 -40 20 0
19 24 20 39 1z m4786 -6 c0 -22 -29 -18 -33 3 -3 14 1 18 15 15 10 -2 18 -10
18 -18z m448 -138 c81 -57 147 -105 147 -108 0 -17 -136 49 -207 100 -44 31
-113 105 -113 121 0 8 4 5 173 -113z m-5573 68 c-12 -17 -47 -49 -77 -71 -58
-43 -200 -115 -209 -106 -3 3 55 47 128 99 182 129 201 139 158 78z m448 7
c31 -39 20 -78 -24 -83 -52 -5 -82 43 -56 87 13 24 18 26 43 17 15 -5 32 -15
37 -21z m4172 12 c0 -6 -4 -7 -10 -4 -5 3 -10 11 -10 16 0 6 5 7 10 4 6 -3 10
-11 10 -16z m442 -6 c14 -34 11 -62 -9 -81 -12 -12 -21 -13 -54 -3 -33 10 -39
16 -39 40 0 36 35 68 78 70 7 1 18 -11 24 -26z m-4763 4 c23 -29 -16 -107 -54
-107 -23 0 -55 23 -55 39 0 15 43 63 64 71 29 12 32 12 45 -3z m4901 -14 c16
-16 31 -39 32 -52 3 -20 -3 -27 -30 -34 -22 -7 -40 -6 -57 1 -22 10 -24 17
-21 53 4 38 17 58 38 59 4 0 21 -12 38 -27z m-3970 8 c0 -5 14 -14 30 -21 17
-7 33 -17 36 -22 3 -4 -15 2 -40 14 -43 20 -59 38 -36 38 6 0 10 -4 10 -9z
m3365 -1 c3 -5 2 -10 -4 -10 -5 0 -13 5 -16 10 -3 6 -2 10 4 10 5 0 13 -4 16
-10z m-435 -35 c-7 -9 -15 -13 -17 -11 -7 7 7 26 19 26 6 0 6 -6 -2 -15z
m-3205 -34 c-3 -6 -11 -11 -16 -11 -5 0 -4 6 3 14 14 16 24 13 13 -3z m-806
-229 c25 -26 99 -116 164 -200 65 -84 120 -152 121 -152 2 0 67 82 144 183 77
100 147 189 156 196 23 19 101 26 136 11 27 -11 41 -30 22 -30 -4 0 -15 -13
-25 -29 -15 -26 -17 -66 -17 -373 0 -323 1 -345 20 -380 19 -35 19 -38 2 -47
-9 -5 -42 -12 -72 -15 -114 -14 -107 -9 -113 -84 -14 -188 -140 -326 -266
-292 -88 23 -111 130 -33 154 17 6 29 1 50 -21 15 -16 32 -37 37 -47 9 -15 14
-16 40 -6 102 39 133 147 142 485 3 121 4 229 2 240 -3 15 -32 -18 -112 -128
-60 -81 -112 -147 -117 -147 -4 0 -54 63 -110 140 -56 77 -106 140 -111 140
-5 0 -10 -186 -11 -414 l-3 -414 -24 -26 c-32 -34 -75 -42 -107 -21 -54 35
-54 37 -54 663 l0 579 -22 28 c-21 27 -21 28 -3 41 10 8 41 14 69 14 46 0 53
-3 95 -48z m1213 30 c9 -9 7 -16 -8 -33 -18 -20 -19 -42 -22 -356 -3 -312 -1
-338 16 -374 l19 -38 -30 -11 c-44 -15 -189 -13 -212 4 -17 12 -17 14 -2 37
15 21 17 63 17 367 0 305 -2 346 -17 369 -16 24 -16 26 3 40 24 18 216 15 236
-5z m653 2 c180 -23 305 -218 236 -369 -17 -39 -72 -95 -92 -95 -5 0 -9 -5 -9
-11 0 -14 127 -246 156 -286 13 -17 24 -36 24 -41 0 -15 -68 -22 -150 -15 -93
7 -114 16 -100 43 9 16 -4 48 -70 177 -45 87 -86 162 -91 167 -5 6 -9 -55 -9
-157 0 -137 3 -172 16 -192 15 -23 15 -25 -2 -32 -24 -10 -203 -10 -227 -1
-17 7 -17 9 -1 32 13 22 17 73 21 353 5 301 4 332 -13 368 -25 56 -24 59 21
66 41 6 219 2 290 -7z m1550 -15 c85 -26 177 -96 221 -169 138 -227 32 -534
-211 -609 -88 -28 -322 -39 -350 -18 -20 15 -20 15 0 37 19 21 20 37 20 364 0
341 0 341 -23 374 l-23 32 23 10 c38 17 268 2 343 -21z m921 16 c70 -21 136
-66 182 -124 165 -208 96 -575 -126 -674 -144 -65 -294 -37 -403 74 -157 161
-166 431 -23 606 91 110 238 157 370 118z m694 4 c170 -27 282 -143 284 -294
1 -83 -24 -143 -85 -200 l-50 -46 40 -115 c68 -194 84 -265 85 -399 1 -135
-16 -199 -61 -235 -37 -29 -93 -27 -123 5 -21 22 -22 29 -14 77 5 29 8 105 8
168 -1 127 -14 178 -112 440 l-47 125 -6 -300 c-3 -165 -10 -311 -14 -325 -26
-80 -98 -140 -168 -140 -31 0 -57 14 -57 32 0 4 21 18 46 29 57 27 93 79 100
146 8 63 -6 89 -57 111 l-40 17 -2 417 -2 416 -22 24 c-13 14 -23 28 -23 31 0
26 197 36 320 16z m-2271 -91 c16 -51 69 -217 116 -368 47 -151 95 -292 105
-312 l20 -38 -23 -4 c-46 -10 -174 -14 -186 -6 -7 4 -14 27 -16 51 -2 24 -10
62 -18 84 l-14 40 -119 0 -119 0 -22 -60 c-12 -33 -22 -72 -22 -87 -1 -20 -7
-27 -23 -30 -34 -5 -175 6 -183 14 -4 3 1 17 9 31 14 20 142 406 237 715 l20
62 104 0 103 0 31 -92z m-827 -950 c37 -26 48 -48 48 -100 0 -52 -17 -80 -64
-102 -96 -45 -209 25 -192 119 19 98 127 141 208 83z m273 18 c37 -16 42 -25
24 -43 -8 -8 -19 -9 -37 -2 -14 5 -31 8 -39 5 -25 -10 -13 -35 25 -46 52 -17
72 -38 72 -76 0 -38 -38 -74 -77 -74 -29 0 -93 26 -93 37 0 24 23 31 55 17 26
-11 36 -11 50 0 26 19 15 37 -35 55 -74 27 -86 85 -26 122 37 23 38 23 81 5z
m1114 4 c78 -22 116 -94 87 -163 -28 -67 -106 -94 -181 -63 -94 40 -91 169 6
218 40 21 43 21 88 8z m861 -5 c30 -15 39 -38 20 -50 -5 -3 -19 -1 -30 5 -24
13 -60 5 -60 -13 0 -7 22 -20 48 -29 60 -22 81 -53 63 -96 -13 -30 -47 -52
-82 -52 -29 0 -79 28 -79 45 0 20 19 29 35 15 23 -19 70 -8 73 16 3 18 -4 23
-33 28 -78 15 -103 89 -42 126 39 24 49 25 87 5z m282 -10 c15 -10 16 -15 5
-29 -11 -15 -17 -16 -39 -5 -30 13 -62 6 -56 -14 3 -6 25 -19 49 -28 80 -30
93 -103 23 -136 -31 -15 -39 -16 -77 -3 -30 11 -42 20 -42 35 0 14 6 19 20 17
88 -15 85 -15 85 7 0 14 -10 25 -27 32 -59 24 -73 33 -79 51 -22 72 70 120
138 73z m-3568 0 c59 -28 81 -96 51 -155 -25 -48 -71 -64 -172 -61 l-33 1 0
108 c0 60 3 112 7 115 12 13 115 7 147 -8z m331 -5 c0 -11 -17 -18 -58 -24
-51 -8 -58 -12 -55 -30 3 -20 8 -22 66 -25 15 -1 22 -7 22 -20 0 -16 -8 -20
-42 -23 -36 -2 -44 -7 -46 -25 -3 -22 0 -23 57 -23 54 0 61 -2 61 -20 0 -18
-7 -20 -85 -20 l-85 0 0 115 0 116 83 -3 c65 -2 82 -6 82 -18z m295 -59 c0
-107 2 -111 60 -111 35 0 50 -4 54 -16 4 -9 5 -18 3 -20 -1 -2 -39 -4 -82 -6
l-80 -3 -3 118 -3 117 26 0 c25 0 25 -1 25 -79z m1210 60 c0 -23 -19 -31 -76
-31 -40 0 -44 -2 -44 -25 0 -23 4 -25 45 -25 38 0 45 -3 45 -20 0 -16 -7 -20
-37 -21 -21 -1 -41 -1 -45 0 -5 0 -8 -19 -8 -44 0 -41 -2 -45 -25 -45 l-25 0
0 115 0 115 85 0 c77 0 85 -2 85 -19z m161 -61 c1 -44 2 -86 3 -92 1 -8 23
-15 61 -18 44 -4 61 -9 63 -21 3 -18 -40 -29 -119 -29 -34 0 -49 5 -53 16 -8
21 -8 209 1 217 3 4 15 7 25 7 16 0 18 -10 19 -80z m793 55 c31 -29 33 -63 5
-99 l-21 -26 21 -34 c27 -43 27 -46 -7 -46 -22 0 -32 7 -45 35 -13 26 -23 35
-42 35 -22 0 -25 -4 -25 -33 0 -40 -5 -46 -31 -40 -17 5 -19 15 -19 119 l0
114 69 0 c58 0 72 -3 95 -25z m286 5 c0 -11 -6 -20 -12 -21 -52 -3 -94 -12
-100 -22 -14 -22 -2 -32 45 -35 39 -3 47 -6 47 -23 0 -16 -7 -19 -44 -19 -31
0 -46 -5 -50 -16 -10 -27 3 -34 60 -34 47 0 54 -2 54 -20 0 -18 -7 -20 -80
-20 l-80 0 0 115 0 115 80 0 c73 0 80 -2 80 -20z m-704 -337 c182 -8 176 -15
-21 -28 -60 -4 -114 -11 -120 -15 -20 -15 -296 -33 -525 -34 -239 0 -580 20
-580 35 0 5 -7 6 -16 2 -9 -3 -39 -1 -67 5 -29 7 -88 15 -132 19 l-80 8 130 5
c202 9 1222 11 1411 3z"/>
<path d="M2775 6474 l-30 -13 32 1 c17 1 30 5 27 9 -2 4 4 10 13 12 12 3 13 5
3 5 -8 0 -28 -6 -45 -14z"/>
<path d="M2687 6422 c-15 -10 -24 -21 -21 -24 3 -4 14 2 25 13 11 11 25 17 31
13 7 -4 8 -3 4 4 -9 15 -6 15 -39 -6z"/>
<path d="M5294 6415 c11 -8 25 -15 30 -15 6 0 2 7 -8 15 -11 8 -25 15 -30 15
-6 0 -2 -7 8 -15z"/>
<path d="M2595 6370 c-3 -5 -1 -10 4 -10 6 0 11 5 11 10 0 6 -2 10 -4 10 -3 0
-8 -4 -11 -10z"/>
<path d="M2540 6339 c-37 -19 -37 -20 24 -24 25 -2 34 0 25 6 -11 7 -10 9 3 9
10 0 22 -9 28 -20 9 -16 13 -18 24 -8 10 9 11 18 4 32 -7 12 -13 15 -20 8 -10
-10 -38 -5 -48 9 -3 4 -21 -1 -40 -12z m36 -6 c-3 -4 -17 -8 -29 -10 -17 -2
-19 -1 -7 7 17 11 47 14 36 3z"/>
<path d="M5335 6350 c-11 -18 6 -32 31 -26 14 4 24 2 24 -4 0 -5 -4 -10 -10
-10 -5 0 -10 -4 -10 -10 0 -5 7 -7 15 -4 8 4 15 1 15 -4 0 -6 14 -10 30 -10
30 1 44 18 15 18 -8 0 -15 7 -15 15 0 22 16 18 34 -7 9 -12 19 -18 23 -14 9 9
-46 56 -65 56 -7 0 -11 -4 -8 -9 4 -5 -3 -7 -14 -4 -11 3 -23 9 -26 14 -7 12
-31 11 -39 -1z m85 -40 c0 -5 -4 -10 -10 -10 -5 0 -10 5 -10 10 0 6 5 10 10
10 6 0 10 -4 10 -10z"/>
<path d="M2726 6333 c-4 -9 -4 -18 -1 -21 3 -3 5 0 5 6 0 6 8 12 18 14 15 3
16 4 0 10 -10 4 -19 1 -22 -9z"/>
<path d="M5260 6330 c0 -5 5 -10 11 -10 5 0 7 5 4 10 -3 6 -8 10 -11 10 -2 0
-4 -4 -4 -10z"/>
<path d="M5308 6293 c6 -2 18 -2 25 0 6 3 1 5 -13 5 -14 0 -19 -2 -12 -5z"/>
<path d="M2601 6274 c0 -11 3 -14 6 -6 3 7 2 16 -1 19 -3 4 -6 -2 -5 -13z"/>
<path d="M5505 6280 c3 -5 10 -10 16 -10 5 0 9 5 9 10 0 6 -7 10 -16 10 -8 0
-12 -4 -9 -10z"/>
<path d="M5416 6254 c-5 -13 -3 -14 6 -6 7 5 22 12 33 15 16 4 14 5 -6 6 -17
1 -29 -5 -33 -15z"/>
<path d="M2678 6213 c7 -3 16 -2 19 1 4 3 -2 6 -13 5 -11 0 -14 -3 -6 -6z"/>
<path d="M2635 6183 c11 -2 34 -8 50 -13 28 -9 29 -9 11 5 -11 8 -34 14 -50
14 -20 -1 -24 -3 -11 -6z"/>
<path d="M3380 4365 c-7 -9 -11 -17 -9 -20 3 -2 10 5 17 15 14 24 10 26 -8 5z"/>
<path d="M3323 4336 c-15 -13 -26 -26 -23 -28 3 -2 18 9 35 24 36 34 27 37
-12 4z"/>
<path d="M3326 4305 c-17 -18 -26 -21 -34 -13 -12 12 -42 -5 -42 -25 0 -6 -10
-21 -21 -33 -19 -21 -20 -25 -6 -38 13 -14 17 -14 27 -1 7 8 10 21 7 29 -3 8
1 17 10 20 9 4 13 12 8 24 -5 13 -4 14 6 5 10 -10 9 -15 -1 -28 -8 -10 -9 -15
-1 -15 6 0 11 4 11 8 0 5 16 27 36 50 38 45 38 59 0 17z m-76 -89 c0 -3 -4 -8
-10 -11 -5 -3 -10 -1 -10 4 0 6 5 11 10 11 6 0 10 -2 10 -4z"/>
<path d="M7030 3700 c-8 -5 -25 -10 -37 -10 -13 0 -23 -4 -23 -9 0 -16 24 -18
38 -4 8 7 17 11 20 9 4 -2 13 2 20 10 15 16 4 18 -18 4z"/>
<path d="M3200 3830 c-8 -5 -12 -12 -9 -15 4 -3 12 1 19 10 14 17 11 19 -10 5z"/>
<path d="M697 3599 c7 -7 15 -10 18 -7 3 3 -2 9 -12 12 -14 6 -15 5 -6 -5z"/>
<path d="M3450 3230 c-13 -8 -12 -10 3 -10 9 0 17 5 17 10 0 12 -1 12 -20 0z"/>
<path d="M3640 3100 c-9 -6 -10 -10 -3 -10 6 0 15 5 18 10 8 12 4 12 -15 0z"/>
<path d="M3770 2990 c8 -5 22 -9 30 -9 10 0 8 3 -5 9 -27 12 -43 12 -25 0z"/>
<path d="M2270 2878 c0 -21 2 -38 4 -38 9 0 12 50 5 62 -6 8 -9 -1 -9 -24z"/>
<path d="M2260 2815 c0 -8 5 -15 10 -15 6 0 10 7 10 15 0 8 -4 15 -10 15 -5 0
-10 -7 -10 -15z"/>
<path d="M1861 3084 c0 -11 3 -14 6 -6 3 7 2 16 -1 19 -3 4 -6 -2 -5 -13z"/>
<path d="M1871 2994 c0 -11 3 -14 6 -6 3 7 2 16 -1 19 -3 4 -6 -2 -5 -13z"/>
<path d="M3190 2130 l0 -80 45 0 c84 0 127 41 111 105 -8 32 -54 55 -111 55
l-45 0 0 -80z"/>
<path d="M4715 2198 c-3 -8 -5 -102 -3 -209 l3 -194 39 2 c56 4 106 33 141 82
27 38 30 51 30 114 0 87 -23 139 -81 179 -48 33 -121 48 -129 26z"/>
<path d="M5599 2187 c-34 -17 -50 -35 -71 -77 -103 -201 88 -423 243 -283 53
48 73 105 67 193 -7 87 -39 142 -101 171 -55 25 -85 24 -138 -4z"/>
<path d="M6375 2160 c-4 -28 -4 -78 0 -111 l7 -61 39 6 c62 10 88 24 109 58
46 73 -7 158 -99 158 l-49 0 -7 -50z"/>
<path d="M4041 2148 c-11 -37 -51 -193 -51 -202 0 -10 118 -7 124 3 5 7 -50
220 -59 229 -1 2 -8 -12 -14 -30z"/>
<path d="M3227 1322 c-40 -44 -7 -122 52 -122 67 0 106 75 61 120 -26 26 -90
27 -113 2z"/>
<path d="M4660 1320 c-44 -44 -8 -120 58 -120 61 0 93 66 56 118 -20 29 -85
31 -114 2z"/>
<path d="M2220 1286 c0 -71 7 -86 39 -86 56 0 94 56 70 103 -16 31 -28 37 -71
37 l-38 0 0 -54z"/>
<path d="M5007 1343 c-4 -3 -7 -19 -7 -35 0 -25 3 -28 33 -28 31 0 57 14 57
31 0 27 -64 51 -83 32z"/>
</g>
</svg>
